<?xml version="1.0"?>
<svg xmlns="http://www.w3.org/2000/svg" xmlns:xlink="http://www.w3.org/1999/xlink" xmlns:svgjs="http://svgjs.com/svgjs" version="1.1" width="512" height="512" x="0" y="0" viewBox="0 0 512 512" style="enable-background:new 0 0 512 512" xml:space="preserve" class=""><g>
<path xmlns="http://www.w3.org/2000/svg" style="" d="M0,256.006C0,397.402,114.606,512.004,255.996,512C397.394,512.004,512,397.402,512,256.006  C512.009,114.61,397.394,0,255.996,0C114.606,0,0,114.614,0,256.006z" fill="#de5252" data-original="#47ceac" class=""/>
<path xmlns="http://www.w3.org/2000/svg" style="" d="M512,256.005c0-3.981-0.119-7.934-0.3-11.871c-0.255-0.256-120.677-120.683-121.175-121.174  C356.185,88.239,308.577,66.665,256,66.665C151.601,66.665,66.665,151.601,66.665,256c0,52.577,21.574,100.185,56.297,134.526  c0.493,0.499,119.908,119.914,120.406,120.406c0.255,0.258,0.512,0.512,0.768,0.768c3.933,0.179,7.883,0.3,11.86,0.3  C397.394,512.004,512,397.401,512,256.005z" fill="#a64b4b" data-original="#36bb9a" class=""/>
<g xmlns="http://www.w3.org/2000/svg">
	<path style="" d="M256,66.665c-104.399,0-189.337,84.937-189.337,189.337S151.601,445.337,256,445.337   S445.337,360.399,445.337,256S360.399,66.665,256,66.665z M256,428.873c-95.323,0-172.873-77.549-172.873-172.873   S160.677,83.129,256,83.129S428.873,160.677,428.873,256S351.323,428.873,256,428.873z" fill="#f3f8ff" data-original="#f4f6f9" class=""/>
	<path style="" d="M343.662,157.739L211.95,207.131c-0.14,0.052-0.254,0.146-0.389,0.205   c-0.32,0.14-0.619,0.304-0.916,0.483c-0.291,0.174-0.572,0.352-0.837,0.559c-0.269,0.209-0.511,0.437-0.752,0.678   c-0.241,0.241-0.469,0.483-0.678,0.752c-0.207,0.266-0.385,0.546-0.559,0.837c-0.178,0.298-0.342,0.596-0.483,0.916   c-0.06,0.135-0.153,0.25-0.205,0.389l-49.392,131.712c-1.134,3.023-0.394,6.428,1.889,8.71c1.571,1.571,3.678,2.412,5.821,2.412   c0.973,0,1.95-0.173,2.89-0.523l131.712-49.392c0.14-0.052,0.254-0.146,0.389-0.205c0.32-0.14,0.619-0.304,0.916-0.483   c0.291-0.174,0.572-0.352,0.837-0.559c0.269-0.209,0.511-0.437,0.752-0.678c0.241-0.241,0.469-0.483,0.678-0.752   c0.207-0.266,0.385-0.546,0.559-0.837c0.178-0.298,0.342-0.596,0.483-0.916c0.06-0.135,0.153-0.25,0.205-0.389l49.392-131.712   c1.134-3.023,0.394-6.428-1.889-8.71C350.09,157.341,346.676,156.625,343.662,157.739z M179.517,332.483L218.06,229.7l64.24,64.24   L179.517,332.483z M293.94,282.3l-64.24-64.24l102.783-38.543L293.94,282.3z" fill="#f3f8ff" data-original="#f4f6f9" class=""/>
</g>
<g xmlns="http://www.w3.org/2000/svg">
</g>
<g xmlns="http://www.w3.org/2000/svg">
</g>
<g xmlns="http://www.w3.org/2000/svg">
</g>
<g xmlns="http://www.w3.org/2000/svg">
</g>
<g xmlns="http://www.w3.org/2000/svg">
</g>
<g xmlns="http://www.w3.org/2000/svg">
</g>
<g xmlns="http://www.w3.org/2000/svg">
</g>
<g xmlns="http://www.w3.org/2000/svg">
</g>
<g xmlns="http://www.w3.org/2000/svg">
</g>
<g xmlns="http://www.w3.org/2000/svg">
</g>
<g xmlns="http://www.w3.org/2000/svg">
</g>
<g xmlns="http://www.w3.org/2000/svg">
</g>
<g xmlns="http://www.w3.org/2000/svg">
</g>
<g xmlns="http://www.w3.org/2000/svg">
</g>
<g xmlns="http://www.w3.org/2000/svg">
</g>
</g></svg>
