<svg width="64" height="64" viewBox="0 0 64 64" fill="none" xmlns="http://www.w3.org/2000/svg">
<path d="M32 0C10.9492 0 5.33337 11.7331 5.33337 18.6666C5.33337 29.2422 21.5339 64 32 64C42.4661 64 58.6666 29.2421 58.6666 18.6666C58.6666 11.7331 53.0508 0 32 0ZM42.6666 32C42.6666 33.5456 40.9844 34.6666 38.6666 34.6666C36.3489 34.6666 34.6666 33.5455 34.6666 32C34.6666 30.4545 36.3489 29.3334 38.6666 29.3334C39.144 29.3334 39.5856 29.3916 40 29.4806V18.9596L29.3334 21.0925V34.6668C29.3334 36.2124 27.6511 37.3334 25.3334 37.3334C23.0156 37.3334 21.3334 36.2123 21.3334 34.6668C21.3334 33.1211 23.0156 32.0001 25.3334 32.0001C25.8108 32.0001 26.2524 32.0584 26.6667 32.1474V20C26.6667 19.3646 27.116 18.8178 27.7384 18.6928L41.0718 16.0261C41.4703 15.9519 41.8713 16.0496 42.1785 16.3021C42.4871 16.556 42.6668 16.9336 42.6668 17.3334V32H42.6666Z" fill="#713BDB"/>
</svg>
