<?xml version="1.0"?>
<svg xmlns="http://www.w3.org/2000/svg" xmlns:xlink="http://www.w3.org/1999/xlink" xmlns:svgjs="http://svgjs.com/svgjs" version="1.1" width="512" height="512" x="0" y="0" viewBox="0 0 25.99 25.99" style="enable-background:new 0 0 512 512" xml:space="preserve" class=""><g>
<g xmlns="http://www.w3.org/2000/svg">
	<g>
		<path d="M18.82,18.488h-2.359c-0.229,0.373-0.451,0.73-0.666,1.072h2.512l4.291,5.357H3.392l4.292-5.357h2.511    c-0.214-0.342-0.437-0.699-0.666-1.072H7.17L1.162,25.99h23.666L18.82,18.488z" fill="#ffffff" data-original="#000000" style="" class=""/>
		<path d="M20.409,7.413C20.409,3.319,17.088,0,12.995,0S5.581,3.319,5.581,7.413c0,4.094,7.414,14.827,7.414,14.827    S20.409,11.507,20.409,7.413z M9.288,7.413c0-2.049,1.661-3.707,3.707-3.707s3.707,1.658,3.707,3.707s-1.661,3.707-3.707,3.707    S9.288,9.462,9.288,7.413z" fill="#ffffff" data-original="#000000" style="" class=""/>
	</g>
</g>
<g xmlns="http://www.w3.org/2000/svg">
</g>
<g xmlns="http://www.w3.org/2000/svg">
</g>
<g xmlns="http://www.w3.org/2000/svg">
</g>
<g xmlns="http://www.w3.org/2000/svg">
</g>
<g xmlns="http://www.w3.org/2000/svg">
</g>
<g xmlns="http://www.w3.org/2000/svg">
</g>
<g xmlns="http://www.w3.org/2000/svg">
</g>
<g xmlns="http://www.w3.org/2000/svg">
</g>
<g xmlns="http://www.w3.org/2000/svg">
</g>
<g xmlns="http://www.w3.org/2000/svg">
</g>
<g xmlns="http://www.w3.org/2000/svg">
</g>
<g xmlns="http://www.w3.org/2000/svg">
</g>
<g xmlns="http://www.w3.org/2000/svg">
</g>
<g xmlns="http://www.w3.org/2000/svg">
</g>
<g xmlns="http://www.w3.org/2000/svg">
</g>
</g></svg>
