<svg height="512" viewBox="0 0 512 512" width="512" xmlns="http://www.w3.org/2000/svg"><path d="m367.987 20h-24a104 104 0 0 0 0 208h24a104 104 0 0 0 0-208z" fill="#4b873c"/><circle cx="343.987" cy="124" fill="#73a041" r="104"/><circle cx="343.987" cy="124" fill="#d7e6f0" r="80"/><path d="m343.987 68v112a56 56 0 0 0 0-112z" fill="#ff555f"/><path d="m399.987 116h-33.376a24.111 24.111 0 0 0 -14.624-14.624v-33.376a8 8 0 0 0 -16 0v33.376a24 24 0 1 0 30.624 30.624h33.376a8 8 0 1 0 0-16z" fill="#3c413c"/><circle cx="343.987" cy="124" fill="#facc0a" r="8"/><path d="m343.987 188a8 8 0 0 1 -8-8v-8a8 8 0 0 1 16 0v8a8 8 0 0 1 -8 8z" fill="#3c413c"/><path d="m295.987 132h-8a8 8 0 0 1 0-16h8a8 8 0 0 1 0 16z" fill="#3c413c"/><path d="m359.987 486h-176a66 66 0 1 1 0-132h93.334a30 30 0 0 0 0-60h-157.334v-36h157.334a66 66 0 0 1 0 132h-93.334a30 30 0 1 0 0 60h176z" fill="#faa01e"/><path d="m399.987 244h64a8 8 0 0 1 8 8v88a32 32 0 0 1 -32 32h-16a32 32 0 0 1 -32-32v-88a8 8 0 0 1 8-8z" fill="#a5c3dc"/><path d="m399.987 244h24a0 0 0 0 1 0 0v96a16 16 0 0 1 -16 16 16 16 0 0 1 -16-16v-88a8 8 0 0 1 8-8z" fill="#d7e6f0"/><path d="m391.987 278.667h80a0 0 0 0 1 0 0v61.333a32 32 0 0 1 -32 32h-16a32 32 0 0 1 -32-32v-61.333a0 0 0 0 1 0 0z" fill="#aa2823"/><path d="m423.987 372h16v96h-16z" fill="#a5c3dc"/><path d="m423.987 372h16v16h-16z" fill="#87a5be"/><path d="m415.987 468h32a16 16 0 0 1 16 16 0 0 0 0 1 0 0h-64a0 0 0 0 1 0 0 16 16 0 0 1 16-16z" fill="#87a5be"/><path d="m391.987 278.667h32a0 0 0 0 1 0 0v61.333a16 16 0 0 1 -16 16 16 16 0 0 1 -16-16v-61.333a0 0 0 0 1 0 0z" fill="#e13741"/><rect fill="#fff" height="85.333" rx="5.333" width="10.667" x="402.654" y="254.667"/><g fill="#e13741"><circle cx="119.987" cy="276" r="24"/><circle cx="359.987" cy="468" r="24"/><path d="m120.961 20.006c-46.03-.549-82.391 38.328-80.9 84.337 2.062 63.739 48.833 116.607 65.828 133.774a19.837 19.837 0 0 0 14.1 5.883 19.844 19.844 0 0 0 14.107-5.888c17.384-17.561 65.893-72.447 65.893-138.112a80 80 0 0 0 -79.028-79.994z"/></g><path d="m119.987 20v224a19.857 19.857 0 0 1 -14.1-5.88c-17-17.17-63.77-70.04-65.83-133.78-1.48-45.68 34.36-84.33 79.93-84.34z" fill="#ff555f"/><circle cx="119.987" cy="100" fill="#a5c3dc" r="56"/><path d="m119.987 44v112a56 56 0 1 1 0-112z" fill="#d7e6f0"/></svg>