<svg width="128" height="128" viewBox="0 0 128 128" fill="none" xmlns="http://www.w3.org/2000/svg">
<g clip-path="url(#clip0)">
<path d="M117.333 19.1999H10.6667C4.77867 19.2068 0.00693333 23.9786 0 29.8666V98.1332C0.00693333 104.021 4.77867 108.793 10.6667 108.8H117.333C117.932 108.802 118.53 108.75 119.119 108.644C124.252 107.785 128.01 103.338 128 98.1332V29.8666C127.993 23.9783 123.221 19.2068 117.333 19.1999ZM10.6667 104.533C7.35067 104.533 4.584 102 4.29227 98.6964L46.8267 70.8863L90.0822 104.533H10.6667ZM123.733 98.1332C123.737 101.264 121.469 103.936 118.379 104.441C118.034 104.504 117.684 104.534 117.333 104.533H97.0304L68.7659 82.5364L94.0416 62.3252L123.733 80.1407V98.1332ZM123.733 75.1658L94.9653 57.905C94.2005 57.445 93.2304 57.5098 92.5333 58.0671L65.2971 79.8484L48.2411 66.5834C47.5224 66.025 46.5288 65.9836 45.7664 66.481L4.26667 93.6148V29.8666C4.26667 26.3319 7.132 23.4666 10.6667 23.4666H117.333C120.868 23.4666 123.733 26.3319 123.733 29.8666V75.1658Z" fill="white"/>
<path d="M63.9999 31.9999C56.9306 31.9999 51.2 37.7305 51.2 44.7999C51.2069 51.8663 56.9335 57.5929 63.9999 57.5999C71.0693 57.5999 76.7999 51.8692 76.7999 44.7999C76.7999 37.7305 71.0693 31.9999 63.9999 31.9999ZM63.9999 53.3332C59.2871 53.3332 55.4666 49.5127 55.4666 44.7999C55.4666 40.0871 59.2871 36.2665 63.9999 36.2665C68.7127 36.2665 72.5333 40.0871 72.5333 44.7999C72.5333 49.5127 68.7127 53.3332 63.9999 53.3332Z" fill="white"/>
</g>
<defs>
<clipPath id="clip0">
<rect width="128" height="128" fill="white"/>
</clipPath>
</defs>
</svg>
